{"title":"Star Trek Into Darkness 2013 English French DVD-R (RLG)","uid":9333247,"size":4693948416,"categoryP":"video","categoryS":"movies_dvdr","magnet":"?xt=urn:btih:9ca8bbbcbbdc013e8b66ed890335e8ab88655859&amp;dn=Star+Trek+Into+Darkness+2013+English+French+DVD-R+%28RLG%29&amp;tr=udp%3A%2F%2Ftracker.openbittorrent.com%3A80&amp;tr=udp%3A%2F%2Fopen.demonii.com%3A1337&amp;tr=udp%3A%2F%2Ftracker.coppersurfer.tk%3A6969&amp;tr=udp%3A%2F%2Fexodus.desync.com%3A6969","seeders":1,"leechers":0,"uploader":"RedLegsGreaves","files":-1,"time":1386804808,"description":" &lt;a href=&quot;http://www.imdb.com/title/tt1408101/&quot; rel=&quot;nofollow&quot; target=&quot;_NEW&quot;&gt;http://www.imdb.com/title/tt1408101/&lt;/a&gt;\nAfter the crew of the Enterprise find an unstoppable force of terror from within their own organization, Captain Kirk leads a manhunt to a war-zone world to capture a one man weapon of mass destruction.\n\nFor Newer Users.\nSimply Drag downloaded folder to your Media Player. This is a NTSC DVD.\nThis is ripped so you would have best quality, menu, bonus/special feature, language options etc.\nNote: DVDs may not have have all* featues.\n\n\nVideo\nID : 224 (0xE0)\nFormat : MPEG Video\nDuration : 30mn 53s\nBit rate mode : Variable\nBit rate : 3 645 Kbps\nMaximum bit rate : 7 799 Kbps\nWidth : 720 pixels\nHeight : 480 pixels\nDisplay aspect ratio : 16:9\nFrame rate : 23.976 fps\nStandard : NTSC\nColor space : YUV\nChroma subsampling : 4:2:0\nBit depth : 8 bits\nScan type : Progressive\nScan order : 2:3 Pulldown\nCompression mode : Lossy\nBits/(Pixel*Frame) : 0.440\nTime code of first frame : 00:29:19:11\nTime code source : Group of pictures header\nStream size : 805 MiB (79%)\n\nAudio #1\nID : 189 (0xBD)-128 (0x80)\nFormat : AC-3\nFormat/Info : Audio Coding 3\nMode extension : CM (complete main)\nFormat settings, Endianness : Big\nMuxing mode : DVD-Video\nDuration : 30mn 53s\nBit rate mode : Constant\nBit rate : 448 Kbps\nChannel count : 6 channels\nChannel positions : Front: L C R, Side: L R, LFE\nSampling rate : 48.0 KHz\nBit depth : 16 bits\nCompression mode : Lossy\nDelay relative to video : -666ms\nStream size : 99.0 MiB (10%) ","torrent":{"xt":"urn:btih:9ca8bbbcbbdc013e8b66ed890335e8ab88655859","amp;dn":"Star+Trek+Into+Darkness+2013+English+French+DVD-R+%28RLG%29","amp;tr":["udp%3A%2F%2Ftracker.openbittorrent.com%3A80","udp%3A%2F%2Fopen.demonii.com%3A1337","udp%3A%2F%2Ftracker.coppersurfer.tk%3A6969","udp%3A%2F%2Fexodus.desync.com%3A6969"],"infoHash":"9ca8bbbcbbdc013e8b66ed890335e8ab88655859","infoHashBuffer":{"type":"Buffer","data":[156,168,187,188,187,220,1,62,139,102,237,137,3,53,232,171,136,101,88,89]},"announce":[],"urlList":[]}}